<svg xmlns="http://www.w3.org/2000/svg" viewBox="0 0 600 340" width="600" height="340">
  <defs>
    <linearGradient id="bg" x1="0%" y1="0%" x2="100%" y2="100%">
      <stop offset="0%" style="stop-color:#1a2a6c"/>
      <stop offset="100%" style="stop-color:#2a3d8f"/>
    </linearGradient>
  </defs>
  <rect width="600" height="340" fill="url(#bg)"/>
  <!-- rodas -->
  <circle cx="155" cy="255" r="65" fill="none" stroke="#222" stroke-width="20"/>
  <circle cx="155" cy="255" r="28" fill="#444"/>
  <circle cx="445" cy="255" r="65" fill="none" stroke="#222" stroke-width="20"/>
  <circle cx="445" cy="255" r="28" fill="#444"/>
  <!-- raios -->
  <line x1="155" y1="227" x2="155" y2="283" stroke="#555" stroke-width="3"/>
  <line x1="127" y1="255" x2="183" y2="255" stroke="#555" stroke-width="3"/>
  <line x1="135" y1="235" x2="175" y2="275" stroke="#555" stroke-width="3"/>
  <line x1="135" y1="275" x2="175" y2="235" stroke="#555" stroke-width="3"/>
  <line x1="445" y1="227" x2="445" y2="283" stroke="#555" stroke-width="3"/>
  <line x1="417" y1="255" x2="473" y2="255" stroke="#555" stroke-width="3"/>
  <line x1="425" y1="235" x2="465" y2="275" stroke="#555" stroke-width="3"/>
  <line x1="425" y1="275" x2="465" y2="235" stroke="#555" stroke-width="3"/>
  <!-- chassi -->
  <path d="M155 255 L220 165 L340 155 L445 190 L445 255" fill="none" stroke="#e8620a" stroke-width="8" stroke-linecap="round"/>
  <!-- motor -->
  <rect x="230" y="200" width="120" height="65" rx="8" fill="#c04e08"/>
  <rect x="240" y="210" width="100" height="45" rx="5" fill="#e8620a"/>
  <!-- tanque -->
  <path d="M255 155 Q300 140 340 155 L340 195 Q300 200 255 195 Z" fill="#e8620a"/>
  <!-- banco -->
  <path d="M255 165 Q300 155 340 165 Q340 185 300 188 Q260 185 255 165 Z" fill="#1a1a1a"/>
  <!-- garfo dianteiro -->
  <path d="M220 165 L175 230" stroke="#888" stroke-width="9" stroke-linecap="round"/>
  <path d="M230 160 L183 230" stroke="#777" stroke-width="7" stroke-linecap="round"/>
  <!-- guidão -->
  <rect x="210" y="140" width="60" height="8" rx="4" fill="#555" transform="rotate(-10 240 144)"/>
  <!-- farol -->
  <ellipse cx="175" cy="215" rx="22" ry="16" fill="#fffde0" stroke="#aaa" stroke-width="2"/>
  <!-- escapamento -->
  <path d="M350 255 Q380 260 420 258" stroke="#777" stroke-width="10" fill="none" stroke-linecap="round"/>
  <text x="300" y="315" font-family="Arial" font-size="14" font-weight="bold" fill="rgba(255,255,255,0.35)" text-anchor="middle" letter-spacing="4">MOTO</text>
</svg>